<svg id="Gruppe_33613" data-name="Gruppe 33613" xmlns="http://www.w3.org/2000/svg" xmlns:xlink="http://www.w3.org/1999/xlink" width="101" height="69.09" viewBox="0 0 101 69.09">
  <defs>
    <clipPath id="clip-path">
      <rect id="Rechteck_1156" data-name="Rechteck 1156" width="101" height="69.09" fill="#f59c00"/>
    </clipPath>
  </defs>
  <g id="Gruppe_28988" data-name="Gruppe 28988" transform="translate(0 0)" clip-path="url(#clip-path)">
    <path id="Pfad_20197" data-name="Pfad 20197" d="M125.378,146.167q1.428-.931,2.832-1.919l-9.872,3.976-.248-.363,5.666-6.048a70.63,70.63,0,0,1-28.068,11.716c.67.053,1.351.094,2.057.108,8.625.166,18.522-2.7,27.633-7.47" transform="translate(-61.569 -91.247)" fill="#f59c00"/>
    <path id="Pfad_20198" data-name="Pfad 20198" d="M54.5,23.526l-.266-.355,3.794-3.983a75.365,75.365,0,0,0-15.124,8.645,69.506,69.506,0,0,0-5.574,4.562C28.91,40.058,23.787,48.747,23.62,56.05c-.007.325,0,.645.012.961a14.429,14.429,0,0,0,.135,1.493l.6,1.087c1-13.632,17.95-30.434,38.318-37.808,7.874-2.851,15.3-3.963,21.436-3.344v.011l.312.042.223.03.223.03v0c9.556,1.221,15.118,6.7,14.894,14.679a25.547,25.547,0,0,1-4.091,12.3l-.178.3-.029.048L93.75,42.566l-.026-.049L87.3,57.844l-.167.4-.155.369L86,60.937l.067-.05,9.687-7.257,11.266-8.44.005,0-4.41,1.04-.05.012.289-.463c.235-.377.46-.752.68-1.127a33.566,33.566,0,0,0,4.336-11.173c.06-.347.115-.692.158-1.035,0-.016,0-.031,0-.046.091-.72.152-1.434.172-2.138,0-.165,0-.327,0-.49a18.181,18.181,0,0,0-.273-3.275,14.6,14.6,0,0,0-3.792-7.588c-.053-.056-.1-.115-.157-.17a16.54,16.54,0,0,0-1.954-1.706,18.468,18.468,0,0,0-1.884-1.238,23.611,23.611,0,0,0-6.129-2.4c-.169-.042-.34-.08-.511-.118s-.35-.078-.527-.115a37.924,37.924,0,0,0-7.5-.776l-.446-.011a56.693,56.693,0,0,0-11.271,1.274Z" transform="translate(-15.196 -7.96)" fill="#f59c00"/>
    <path id="Pfad_20199" data-name="Pfad 20199" d="M8.694,56.777a13.232,13.232,0,0,1-.554-2.287q-.045-.3-.078-.606c-.02-.185-.039-.37-.051-.559-.011-.157-.016-.317-.023-.476-.013-.321-.021-.643-.013-.971.168-7.315,5.2-15.978,13.5-23.646a69.473,69.473,0,0,1,5.974-4.924q2.551-1.877,5.24-3.525A75.139,75.139,0,0,1,43.651,14.2l.019.028.229.336-3.616,3.8,16.548-8.49.79-.405.792-.406L64.3,6.036,43.157,5.9l1.5,2.459-.249.1A92.367,92.367,0,0,0,23.745,19.944a83.044,83.044,0,0,0-9.661,8.288C6.035,36.329.987,45.119.133,52.85c-.068.619-.114,1.233-.128,1.838a15.276,15.276,0,0,0,5.684,12.7,21.566,21.566,0,0,0,8.358,3.982L4.3,55.638Z" transform="translate(0 -3.799)" fill="#f59c00"/>
    <path id="Pfad_20200" data-name="Pfad 20200" d="M44.505,186.309a38.4,38.4,0,0,0,7.091.626c.152,0,.306,0,.458-.006a23.343,23.343,0,0,1-7.309-3.015Z" transform="translate(-28.636 -118.336)" fill="#f59c00"/>
    <path id="Pfad_20201" data-name="Pfad 20201" d="M103.949,35.18a40.65,40.65,0,0,0,5.387-10.746c1.71-5.5,1.574-10.558-.521-14.63C105.74,3.83,98.79.364,89.192,0l6.015,3.926L89.356,5.208,89.3,5.22a20.388,20.388,0,0,1,9.327,5.238c.071.073.137.149.206.223.205.195.4.4.592.6a12.433,12.433,0,0,1,1.953,2.764,13.069,13.069,0,0,1,1.291,4.018c.039.254.07.51.1.768a19.17,19.17,0,0,1,.209,3.475c-.02.7-.078,1.41-.167,2.126a33.488,33.488,0,0,1-4.966,13.157l.05-.012,4.4-1.038v0l.1.208h0l.088.187L86.31,49.051,79.331,54.28l-.067.05,1.349-3.219A77.564,77.564,0,0,1,73.564,55.3q-1.019.535-2.05,1.037-1,.486-2,.941c-8.019,3.623-16.4,5.716-23.831,5.563a33.08,33.08,0,0,1-3.878-.3q-.386-.053-.763-.116-.416-.069-.821-.15A19.751,19.751,0,0,1,33.466,59.7l-.448-.283,4.232-1.032L18.938,53.633l-.285-.075-.261-.067-3.606-.935,9.4,15.167.172.277.15.243.343.554.047-.468.021-.212.022-.228.31-3.1.312.211a23.842,23.842,0,0,0,9.33,3.538q.524.091,1.061.167.478.068.966.123c1.233.14,2.517.228,3.856.255.3.006.6.009.907.009,15.934,0,35.19-8.183,49.388-20.039a69.793,69.793,0,0,0,12.88-13.871" transform="translate(-9.513 0)" fill="#f59c00"/>
    <path id="Pfad_20202" data-name="Pfad 20202" d="M63.716,72.912v8.932c0,6.938,3.289,11.029,7.991,11.029s8.021-4.091,8.021-11.029V67.613H73.381V82.7c0,1.708-.635,2.6-1.673,2.6s-1.673-.889-1.673-2.6v-15a69.7,69.7,0,0,0-6.318,5.213" transform="translate(-40.997 -43.505)" fill="#f59c00"/>
    <path id="Pfad_20203" data-name="Pfad 20203" d="M115.717,67.612V92.481h6.347V82.021h.894c1.5,0,1.847.712,1.847,2.6v7.863h6.347v-7.4c0-4.269-.548-6.368-3.26-7.044.779-.569,1.241-1.637,1.731-3.238l2.164-7.187h-6.578l-1.616,6.262c-.346,1.352-.779,2.028-1.529,2.1V67.612Z" transform="translate(-74.456 -43.504)" fill="#f59c00"/>
    <path id="Pfad_20204" data-name="Pfad 20204" d="M178.172,91.775l2.857-6.815V77.544c0-6.938-3.318-11.029-8.02-11.029s-7.992,4.091-7.992,11.029V91.775h4.8l.121-.086.076.086h1.349V76.69c0-1.708.606-2.6,1.644-2.6s1.7.89,1.7,2.6v.747h-2.625v6.511h2.625v7.827Z" transform="translate(-106.177 -42.798)" fill="#f59c00"/>
  </g>
</svg>
